<svg width="91" height="66" viewBox="0 0 91 66" fill="none" xmlns="http://www.w3.org/2000/svg">
<path d="M24.0384 60.6087C20.5724 56.5673 18.49 51.321 18.49 45.5909V20.083C18.49 14.565 16.2259 9.52806 12.6101 5.90948C9.3196 2.62179 4.8872 0.451576 0 0.061554V45.5909C0 51.1389 2.26361 56.1453 5.91222 59.7935C9.5308 63.4416 14.5691 65.7029 20.0885 65.7029H30.0732C27.7814 64.3479 25.7276 62.6264 24.0384 60.6087Z" fill="url(#paint0_linear_3_2058)"/>
<path d="M54.6851 20.0828C54.6851 14.3827 56.7676 9.13509 60.2074 5.06454C61.9228 3.04546 63.9466 1.32534 66.2364 -6.10352e-05H56.2832C50.7347 -6.10352e-05 45.7274 2.26119 42.0778 5.90934C38.4278 9.55749 36.1656 14.5648 36.1656 20.0828C36.1656 25.5093 36.198 29.1884 36.2257 32.8366C36.2257 37.6609 36.2567 42.4852 36.2567 45.5908C36.2567 48.9672 35.5325 52.1948 34.2334 55.0892C33.1234 57.5232 31.622 59.7464 29.7916 61.6702C29.931 61.7758 30.0689 61.8903 30.2097 61.9898C30.3299 62.0748 30.4543 62.1541 30.573 62.2362C30.9663 62.5028 31.3681 62.7628 31.7811 63.0017C31.8374 63.0336 31.8984 63.0646 31.9571 63.0984C33.4355 63.9343 35.0251 64.5937 36.6964 65.04C36.7096 65.0424 36.7246 65.0485 36.7391 65.0518C37.1925 65.1715 37.6572 65.2639 38.1218 65.3522C38.1542 65.3578 38.1866 65.3667 38.2157 65.3728C42.8931 64.5266 47.0251 62.0541 50.0092 58.5571C52.9669 55.0601 54.7776 50.538 54.7776 45.5908C54.7776 40.1343 54.7452 36.5157 54.7147 32.8366C54.6851 28.0418 54.6851 23.2471 54.6851 20.0828Z" fill="url(#paint1_linear_3_2058)"/>
<path d="M86.2048 7.11462C83.2578 3.63073 79.1432 1.16438 74.4892 0.312061C73.9641 0.403114 73.4483 0.507301 72.9409 0.637779C72.9001 0.648106 72.8588 0.662655 72.8179 0.672977C72.3486 0.797821 71.8877 0.942852 71.4306 1.09961C71.263 1.15828 71.0964 1.22022 70.9293 1.28171C70.6505 1.38731 70.375 1.50464 70.0991 1.62291C69.8499 1.73321 69.5917 1.83882 69.3453 1.95897C68.815 2.20537 68.2926 2.48978 67.782 2.79016C67.5947 2.90045 67.4159 3.0206 67.2338 3.13793C66.856 3.38011 66.4833 3.62463 66.1252 3.88981C66.0844 3.92266 66.0431 3.95599 66.0022 3.98555C67.8406 5.915 69.3453 8.14386 70.46 10.5839C71.7591 13.4783 72.4805 16.7041 72.4805 20.0828C72.4805 25.0869 70.9143 29.7019 68.1959 33.5303C66.266 36.2134 63.794 38.5057 60.9287 40.1948H70.8824C76.4304 40.1948 81.4424 37.9322 85.0878 34.284C88.7359 30.6354 91 25.5989 91 20.0828C91 15.1675 89.1907 10.644 86.2048 7.11462Z" fill="url(#paint2_linear_3_2058)"/>
<defs>
<linearGradient id="paint0_linear_3_2058" x1="114.535" y1="65.7038" x2="114.535" y2="0.0629715" gradientUnits="userSpaceOnUse">
<stop stop-color="#2D3691"/>
<stop offset="0.193939" stop-color="#2D9DDE"/>
<stop offset="0.30303" stop-color="#A3E1F9"/>
<stop offset="1" stop-color="#1575C5"/>
</linearGradient>
<linearGradient id="paint1_linear_3_2058" x1="146.907" y1="65.5338" x2="148.056" y2="-0.307935" gradientUnits="userSpaceOnUse">
<stop stop-color="#2253A6"/>
<stop offset="0.181818" stop-color="#127EC7"/>
<stop offset="0.490909" stop-color="#51ADE5"/>
<stop offset="0.830303" stop-color="#A3E1F9"/>
<stop offset="1" stop-color="#1082CF"/>
</linearGradient>
<linearGradient id="paint2_linear_3_2058" x1="175.463" y1="0.313478" x2="175.463" y2="40.1958" gradientUnits="userSpaceOnUse">
<stop stop-color="#2C3892"/>
<stop offset="0.351515" stop-color="#51ADE5"/>
<stop offset="0.545455" stop-color="#A3E1F9"/>
<stop offset="1" stop-color="#0C8ED8"/>
</linearGradient>
</defs>
</svg>
